<svg width="88" height="89" viewBox="0 0 88 89" fill="none" xmlns="http://www.w3.org/2000/svg">
<circle cx="49" cy="48" r="23" fill="#BED6F6"/>
<path d="M46.6979 52.3397L61.3162 41.2445C61.7457 40.9185 62.442 40.9185 62.8715 41.2445C63.3009 41.5704 63.3009 42.0989 62.8715 42.4249L47.4756 54.1104C47.0461 54.4363 46.3498 54.4363 45.9203 54.1104L39.3221 49.1023C38.8926 48.7763 38.8926 48.2479 39.3221 47.9219C39.7516 47.5959 40.4479 47.5959 40.8773 47.9219L46.6979 52.3397Z" fill="white"/>
<path d="M80.2695 35.2124C81.4156 37.8597 82.2166 40.6828 82.6177 43.6284L81.6269 43.7634C81.8156 45.1491 81.913 46.5632 81.913 48C81.913 49.4368 81.8156 50.8509 81.6269 52.2366L82.6177 52.3716C82.2166 55.3172 81.4156 58.1403 80.2695 60.7876L79.3518 60.3903C78.2212 63.0021 76.7433 65.4385 74.9736 67.6449L75.7537 68.2706C73.9306 70.5436 71.8079 72.5786 69.4434 74.3196L68.8505 73.5144C66.5874 75.1807 64.0957 76.5697 61.429 77.6292L61.7983 78.5585C59.1287 79.6191 56.2892 80.359 53.3304 80.7288L53.2064 79.7365C51.8155 79.9103 50.397 80 48.9565 80C47.516 80 46.0975 79.9103 44.7066 79.7365L44.5826 80.7288C41.6239 80.359 38.7843 79.6191 36.1148 78.5585L36.484 77.6292C33.8174 76.5697 31.3257 75.1807 29.0626 73.5144L28.4697 74.3196C26.1051 72.5786 23.9825 70.5436 22.1593 68.2706L22.9394 67.6449C21.1697 65.4385 19.6919 63.0021 18.5612 60.3903L17.6435 60.7876C16.4975 58.1403 15.6965 55.3172 15.2953 52.3716L16.2862 52.2366C16.0975 50.8509 16 49.4368 16 48C16 46.5632 16.0975 45.1491 16.2862 43.7634L15.2953 43.6284C15.6965 40.6827 16.4975 37.8597 17.6435 35.2124L18.5612 35.6097C19.6919 32.9979 21.1697 30.5615 22.9394 28.3551L22.1593 27.7294C23.9825 25.4564 26.1051 23.4214 28.4697 21.6804L29.0626 22.4856C31.3257 20.8193 33.8174 19.4303 36.484 18.3708L36.1148 17.4415C38.7843 16.3808 41.6239 15.641 44.5826 15.2712L44.7066 16.2635C46.0975 16.0897 47.516 16 48.9565 16C50.397 16 51.8155 16.0897 53.2064 16.2635L53.3304 15.2712C56.2892 15.641 59.1287 16.3808 61.7983 17.4415L61.429 18.3708C64.0957 19.4303 66.5874 20.8193 68.8505 22.4856L69.4434 21.6804C71.8079 23.4214 73.9306 25.4564 75.7537 27.7294L74.9736 28.3551C76.7433 30.5615 78.2212 32.9979 79.3518 35.6097L80.2695 35.2124Z" stroke="#BED6F6" stroke-width="2" stroke-dasharray="10 10"/>
</svg>
