<svg width="610" height="439" viewBox="0 0 610 439" fill="none" xmlns="http://www.w3.org/2000/svg">
<path d="M610 334.553C610 367.533 600.818 398.353 585.057 424.276C582.316 428.884 579.301 433.349 576.012 437.525H31.5212C29.4655 433.205 27.5468 428.74 25.7652 424.276C18.2275 404.689 13.9791 383.231 13.9791 360.908C13.9791 348.09 15.3495 335.561 17.9535 323.463C18.0905 323.031 18.0905 322.599 18.2275 322.167C23.5724 298.116 33.851 276.082 47.8299 257.215C48.104 240.221 49.8856 223.515 53.1747 207.529C53.3118 207.097 53.3118 206.521 53.4488 206.089C58.3826 182.326 66.3313 159.859 76.884 138.977C77.1581 138.545 77.2952 138.113 77.5693 137.681C92.7816 108.013 113.476 81.658 138.007 60.3434C138.419 60.0553 138.693 59.6233 139.104 59.3352C144.997 54.2946 151.164 49.542 157.468 44.9335C157.879 44.6454 158.29 44.3574 158.839 43.9254C165.691 39.1728 172.68 34.7082 179.944 30.6757C180.629 30.2437 181.314 29.9556 182 29.5236C194.471 22.6108 207.628 16.8501 221.332 12.3855C222.292 12.0975 223.251 11.8094 224.21 11.3774C247.372 3.88847 271.766 0 296.983 0C313.703 0 330.011 1.72821 345.772 5.04061C346.868 5.32865 347.965 5.47267 348.924 5.7607C412.651 20.0184 467.47 59.9113 502.966 114.638C503.24 115.07 503.514 115.502 503.925 116.078C519.275 139.985 530.786 166.628 537.913 195.288C553.948 206.233 567.926 220.059 579.164 236.045C579.438 236.477 579.713 236.909 580.124 237.341C588.621 249.582 595.473 262.976 600.407 277.378C600.544 277.81 600.681 278.242 600.818 278.674C606.848 296.1 610 314.966 610 334.553Z" fill="url(#paint0_linear_1_61)"/>
<path d="M497.489 271.184H353.315L323.987 425.715H477.617C492.282 386.974 500.367 347.657 502.423 283.425C502.56 278.673 500.779 274.208 497.489 271.184Z" fill="#8E859C"/>
<path d="M497.489 271.184C496.53 313.813 491.322 347.657 483.922 376.749C479.399 394.463 474.054 410.593 468.161 425.715H317.82L347.148 271.184H497.489Z" fill="#413348"/>
<path d="M483.782 376.749C479.259 394.463 473.914 410.593 468.021 425.714H360.027C357.561 408.864 411.283 279.825 411.283 279.825C411.283 279.825 426.222 363.211 483.782 376.749Z" fill="#413348"/>
<path d="M254.911 407.857C254.911 407.857 272.59 407.137 283.554 391.151C294.518 375.165 304.385 352.843 304.385 352.843L266.697 343.914L254.911 407.857Z" fill="#E1A181"/>
<path d="M305.893 215.594C305.893 215.594 267.656 268.88 329.602 283.714C391.547 298.548 415.805 268.88 419.779 250.302C424.028 231.004 397.303 189.671 387.847 166.916C378.391 144.161 357.148 158.995 357.148 158.995L305.893 215.594Z" fill="#DBD1B5"/>
<path d="M327.545 275.937C327.545 275.937 299.177 267.584 303.836 243.677C303.836 243.677 293.421 267.152 320.556 278.241C347.692 289.331 327.545 275.937 327.545 275.937Z" fill="white"/>
<path d="M463.089 338.873C462.678 338.729 457.47 337.001 446.232 348.666C434.72 360.764 415.396 358.171 415.396 358.171L409.229 429.604H323.437C323.437 429.604 325.082 413.186 314.529 395.904C304.798 380.062 302.058 369.117 301.783 367.82C301.783 367.676 301.783 367.676 301.783 367.676C301.783 367.676 298.905 367.676 295.068 366.956C288.079 365.66 277.389 362.06 272.729 351.834C265.603 335.848 256.832 334.12 256.832 334.12C256.832 334.12 286.434 297.828 297.398 287.027C300.139 284.29 303.154 282.13 306.169 280.258C315.077 274.785 323.574 272.769 323.574 272.769L397.717 273.201C397.717 273.201 401.143 273.633 405.666 274.929C411.559 276.513 419.37 279.394 424.578 284.434C433.623 293.219 462.266 337.721 463.089 338.873Z" fill="#E7B84B"/>
<path d="M405.393 275.073C394.977 284.723 350.574 325.479 340.432 325.768C332.346 325.912 315.215 297.252 305.896 280.402C314.804 274.929 323.301 272.913 323.301 272.913L397.444 273.345C397.444 273.345 400.87 273.777 405.393 275.073Z" fill="#F6E1A7"/>
<g opacity="0.36">
<path d="M304.39 319.142L301.649 367.82C301.649 367.82 298.771 367.82 294.934 367.099L304.39 319.142Z" fill="#CC7F4D"/>
<path d="M348.654 388.846C341.802 400.944 360.44 413.905 356.192 429.603H323.3C323.3 429.603 324.945 413.185 314.392 395.903C304.662 380.061 301.921 369.116 301.647 367.82C302.058 369.26 307.54 383.95 340.568 374.733C375.379 365.084 392.235 381.646 392.235 381.646C392.235 381.646 355.644 376.605 348.654 388.846Z" fill="#CC7F4D"/>
<path d="M415.397 358.17L394.839 316.405C394.839 316.405 399.773 373.724 412.93 386.542L415.397 358.17Z" fill="#CC7F4D"/>
</g>
<path d="M464.319 425.715C453.766 425.715 345.087 425.715 345.087 425.715C345.087 425.715 331.794 425.715 325.626 425.715C319.596 425.715 309.044 418.802 309.044 418.802C309.044 418.802 300.821 425.715 296.161 426.291C291.776 426.867 299.313 417.794 300.136 416.93C299.176 417.794 286.294 428.595 283.827 425.859C282.319 424.275 284.238 421.971 286.157 420.242C282.73 422.835 276.837 426.579 274.508 425.715C270.944 424.419 287.801 409.729 292.735 406.129C297.669 402.384 305.892 403.248 310.688 403.248C315.622 403.248 345.772 413.618 345.772 413.618L434.991 397.92L420.875 367.1L416.9 358.603C433.209 360.619 441.021 348.378 453.492 342.329C453.492 342.329 453.629 342.617 453.766 343.193C455.822 348.954 468.567 383.806 473.638 397.632C479.531 412.465 474.871 425.715 464.319 425.715Z" fill="#FFBE9D"/>
<path d="M454.042 342.904C454.042 342.904 448.835 346.793 440.749 357.162C432.663 367.531 421.014 366.955 421.014 366.955L417.039 358.458C433.348 360.475 441.16 348.233 453.631 342.184C453.768 342.04 453.768 342.328 454.042 342.904Z" fill="#E1A181"/>
<path d="M435.129 397.631C435.129 397.631 454.589 393.599 462.949 406.416C462.949 406.416 452.26 387.838 433.073 393.167L435.129 397.631Z" fill="#E1A181"/>
<path d="M397.441 273.345C334.536 318.998 323.298 272.913 323.298 272.913L340.84 267.44C341.936 263.12 342.073 258.943 341.799 255.343C341.525 253.038 341.114 250.878 340.566 249.006C339.195 244.253 337.277 241.229 337.277 241.229L348.789 232.444L365.234 220.058L370.442 216.17C370.579 217.034 370.579 217.898 370.716 218.762C372.498 236.764 375.376 253.182 379.762 267.008L397.441 273.345Z" fill="#FFBE9D"/>
<path d="M379.764 267.152C358.795 275.793 341.801 255.342 341.801 255.342C341.527 253.038 341.116 250.878 340.568 249.006L348.791 232.588L365.237 220.202L370.581 218.906C372.5 236.908 375.241 253.326 379.764 267.152Z" fill="#E1A181"/>
<path d="M306.579 214.01C306.579 214.01 296.027 201.48 300.001 184.054C303.975 166.628 321.518 176.709 321.518 176.709L306.579 214.01Z" fill="#DBD1B5"/>
<path d="M361.196 231.811C379.785 220.786 386.35 196.014 375.859 176.48C365.368 156.945 341.794 150.047 323.206 161.071C304.617 172.095 298.052 196.868 308.543 216.402C319.034 235.936 342.607 242.835 361.196 231.811Z" fill="#FFBE9D"/>
<path d="M371.27 223.371C362.499 243.245 350.439 251.454 341.805 254.911C335.912 257.215 329.196 255.631 324.811 251.022C318.233 243.965 313.573 236.62 310.421 229.42C309.736 227.835 309.05 226.251 308.502 224.811C302.472 208.681 303.431 195.431 303.431 195.431L371.27 223.371Z" fill="#FFBE9D"/>
<path d="M371.682 208.105C371.682 208.105 383.468 199.464 385.524 208.681C387.579 217.898 376.341 232.588 367.981 228.555C359.759 224.667 371.682 208.105 371.682 208.105Z" fill="#FFBE9D"/>
<path d="M370.036 221.93C370.036 221.93 375.106 209.256 379.766 207.672C384.563 206.232 383.329 213.289 383.329 213.289C383.329 213.289 382.781 209.112 380.177 209.832C377.71 210.552 376.066 214.585 376.066 214.585C376.066 214.585 379.218 213.145 379.629 215.593C380.04 217.897 374.832 219.194 374.832 219.194C374.832 219.194 376.888 217.177 375.381 216.457C375.518 216.601 372.64 218.185 370.036 221.93Z" fill="#E1A181"/>
<path d="M365.922 219.194C365.922 219.194 356.74 214.009 360.166 200.616C360.166 200.616 317.133 213.433 304.114 189.094C304.114 189.094 303.566 153.378 337.279 146.177C370.993 138.976 390.454 168.932 385.52 208.681C385.657 208.681 377.845 196.871 365.922 219.194Z" fill="#DBD1B5"/>
<path d="M310.42 175.989C310.42 175.989 323.302 142.864 356.331 151.218C356.194 151.073 326.591 147.617 310.42 175.989Z" fill="white"/>
<path d="M337.557 307.909C337.557 315.542 306.858 315.542 306.858 307.909V271.329H337.557V307.909Z" fill="#8E859C"/>
<path d="M337.557 271.329C337.557 272.913 330.704 274.065 322.208 274.065C313.711 274.065 306.858 272.769 306.858 271.329C306.858 269.744 313.711 268.592 322.208 268.592C330.704 268.592 337.557 269.744 337.557 271.329Z" fill="#413348"/>
<path d="M322.21 273.057C314.672 273.057 309.875 271.905 308.368 271.185C309.875 270.465 314.672 269.312 322.21 269.312C329.747 269.312 334.544 270.465 336.051 271.185C334.407 271.905 329.747 273.057 322.21 273.057Z" fill="#8E859C"/>
<path d="M241.896 402.385C223.942 384.814 275.609 313.526 283.421 297.828C284.106 296.388 285.066 295.092 286.162 293.939C289.177 290.771 294.933 284.866 296.578 283.57C298.908 281.842 306.856 279.826 306.856 279.826V286.018C306.856 286.018 326.043 285.874 332.895 284.434C340.159 282.85 335.636 287.747 319.328 292.067L321.932 292.643C325.084 293.363 328.373 293.075 331.251 291.635C334.266 290.195 337.829 288.467 338.651 288.611C340.981 288.899 334.266 295.956 329.195 298.404C329.195 298.404 337.555 292.211 338.24 295.38C338.925 298.548 329.606 303.012 325.495 305.605C321.383 308.197 300.278 308.197 300.278 308.197C300.278 308.197 294.111 337.865 285.614 367.964C276.843 398.208 257.793 418.083 241.896 402.385Z" fill="#FFBE9D"/>
<path d="M326.728 303.301C326.728 303.301 337.281 304.597 337.281 306.325C337.281 308.197 318.368 307.621 318.368 307.621L326.728 303.301Z" fill="#FFBE9D"/>
<path d="M300.14 308.485L289.861 309.205C289.861 309.205 293.973 312.805 298.906 313.67L300.14 308.485Z" fill="#E1A181"/>
<path d="M514.206 402.672V405.409H449.931C445.956 405.409 442.804 402.096 442.804 397.92C442.804 395.904 443.626 394.031 444.86 392.591C446.093 391.295 447.875 390.431 449.931 390.431H514.206V393.167V402.672Z" fill="#6A9E95"/>
<path d="M506.667 397.92C506.667 400.512 508.723 402.672 511.19 402.672H575.465V405.409H511.19C507.216 405.409 504.063 402.096 504.063 397.92C504.063 395.904 504.886 394.031 506.119 392.591C507.353 391.295 509.134 390.431 511.19 390.431H575.465V393.167H511.19C508.723 393.167 506.667 395.327 506.667 397.92Z" fill="#81C2B7"/>
<path d="M571.22 393.167V402.672H511.193C508.726 402.672 506.671 400.512 506.671 397.92C506.671 395.327 508.726 393.167 511.193 393.167H571.22Z" fill="white"/>
<path d="M500.23 405.409H493.514C489.266 405.409 489.266 390.431 493.514 390.431H500.23C494.885 390.431 494.885 405.409 500.23 405.409Z" fill="#81C2B7"/>
<path d="M461.444 405.409H454.729C450.48 405.409 450.48 390.431 454.729 390.431H461.444C456.099 390.431 456.099 405.409 461.444 405.409Z" fill="#81C2B7"/>
<path d="M491.731 405.409H487.893C483.645 405.409 483.645 390.431 487.893 390.431H491.731C486.386 390.431 486.386 405.409 491.731 405.409Z" fill="#81C2B7"/>
<path d="M512.972 421.97V425.715H439.24C433.895 425.715 429.647 421.106 429.647 415.634C429.647 412.897 430.743 410.305 432.525 408.433C434.306 406.561 436.636 405.408 439.377 405.408H513.109V409.153V421.97H512.972Z" fill="#8E859C"/>
<path d="M502.694 415.49C502.694 419.09 505.435 421.97 508.862 421.97H570.944V425.715H508.862C503.517 425.715 499.268 421.106 499.268 415.634C499.268 412.897 500.365 410.305 502.146 408.433C503.928 406.561 506.258 405.408 508.999 405.408H571.081V409.153H508.999C505.435 409.153 502.694 412.033 502.694 415.49Z" fill="#413348"/>
<path d="M565.188 409.153V421.97H508.862C505.435 421.97 502.694 419.09 502.694 415.49C502.694 411.889 505.435 409.009 508.862 409.009H565.188V409.153Z" fill="white"/>
<path d="M454.593 425.715H445.41C439.654 425.715 439.654 405.408 445.41 405.408H454.593C447.329 405.408 447.329 425.715 454.593 425.715Z" fill="#413348"/>
<path d="M65.3767 369.98C65.3767 369.98 64.9656 354.426 68.3918 349.817C71.818 345.209 71.818 364.651 71.818 364.651C71.818 364.651 74.1478 355.722 76.6146 355.866C79.0815 355.866 79.4926 370.988 79.4926 370.988C79.4926 370.988 80.7261 364.219 84.4264 365.947C84.4264 365.947 87.8526 351.69 91.5528 350.394C95.2531 349.097 93.7456 377.037 93.3345 376.605C92.9233 376.173 97.0348 355.434 99.3646 356.01C101.831 356.442 101.009 375.741 101.009 375.741C101.009 375.741 97.1718 389.422 96.6236 388.702C96.2125 387.838 59.0725 388.702 59.0725 388.702C59.0725 388.702 55.7834 358.026 59.0725 356.154C62.3616 353.85 65.3767 369.98 65.3767 369.98Z" fill="#6A9E95"/>
<path d="M58.1122 388.414C58.1122 388.414 50.1635 362.779 52.6303 356.586C55.0972 350.537 66.7462 380.925 66.7462 380.925C66.7462 380.925 67.7056 369.403 70.7206 367.963C73.7357 366.523 74.1468 378.909 74.1468 378.909C74.1468 378.909 77.2989 373.436 80.314 375.308C83.329 377.18 83.4661 384.093 83.4661 384.093C83.4661 384.093 89.6332 366.523 93.1965 365.227C96.8968 363.931 95.2522 384.093 95.2522 384.093C95.2522 384.093 100.46 354.57 105.257 355.722C110.053 356.874 100.734 388.27 100.734 388.27H58.1122V388.414Z" fill="#81C2B7"/>
<path d="M57.1518 364.796C57.7 366.524 57.7 368.252 57.0147 368.396C56.3295 368.684 55.3701 367.388 54.822 365.516C54.2738 363.787 54.2738 362.059 54.959 361.915C55.6442 361.771 56.6036 363.067 57.1518 364.796Z" fill="#A2E6D2"/>
<path d="M94.4263 370.125C94.0151 371.133 93.1929 371.709 92.6447 371.565C91.9594 371.277 91.8224 370.269 92.2335 369.26C92.6447 368.252 93.467 367.676 94.0151 367.82C94.7004 368.108 94.8374 369.116 94.4263 370.125Z" fill="#A2E6D2"/>
<path d="M93.7434 374.157C93.4693 374.878 92.9211 375.31 92.51 375.166C92.0988 375.022 91.9618 374.302 92.2359 373.581C92.51 372.861 93.0581 372.429 93.4693 372.573C93.8804 372.717 94.0175 373.437 93.7434 374.157Z" fill="#A2E6D2"/>
<path d="M105.532 362.636C105.258 363.356 104.709 363.788 104.298 363.644C103.887 363.5 103.75 362.78 104.024 362.06C104.298 361.339 104.846 360.907 105.258 361.051C105.669 361.195 105.806 361.915 105.532 362.636Z" fill="#A2E6D2"/>
<path d="M92.2357 367.821C92.0986 368.11 91.9616 368.254 91.6875 368.254C91.5504 368.254 91.4134 367.965 91.5504 367.677C91.6875 367.388 91.8245 367.244 92.0986 367.244C92.3727 367.244 92.3727 367.532 92.2357 367.821Z" fill="#A2E6D2"/>
<path d="M59.6188 369.405C59.8929 370.269 59.7559 371.133 59.4818 371.277C59.0706 371.421 58.5224 370.845 58.2483 369.837C57.9742 368.972 58.1113 368.108 58.3854 367.964C58.7965 367.964 59.3447 368.54 59.6188 369.405Z" fill="#A2E6D2"/>
<path d="M81.4073 377.901C81.6814 378.765 81.5444 379.629 81.2703 379.773C80.8591 379.918 80.311 379.341 80.0369 378.333C79.7628 377.469 79.8998 376.605 80.1739 376.461C80.448 376.317 81.1332 377.037 81.4073 377.901Z" fill="#A2E6D2"/>
<path d="M84.286 425.715H96.4833L102.376 387.406H84.286V425.715Z" fill="#413348"/>
<path d="M84.013 425.715H59.7555L53.8625 387.406H87.7133L84.013 425.715Z" fill="#3B3348"/>
<path d="M292.323 425.715H238.052V417.074L286.704 421.683L292.323 425.715Z" fill="#32324F"/>
<path d="M254.91 425.715H124.304L99.3608 339.881L101.828 335.992H227.364L254.91 425.715Z" fill="#8E859C"/>
<path d="M249.565 425.716H124.304L99.3608 339.881H224.76L249.565 425.716Z" fill="#3B3348"/>
<path d="M182.959 385.103C184.33 390.143 182.274 394.32 178.299 394.32C174.325 394.32 169.939 390.143 168.432 385.103C167.061 380.062 169.117 375.886 173.092 375.886C177.066 375.886 181.451 380.062 182.959 385.103Z" fill="#F9F9FF"/>
<path opacity="0.4" d="M124.304 425.716C124.304 425.716 123.345 396.768 166.789 407.857C210.233 419.091 229.831 381.502 224.76 339.881L249.566 425.716H124.304Z" fill="#413348"/>
<path d="M605.34 425.716H0V438.965H605.34V425.716Z" fill="#3B3348"/>
<path d="M605.341 425.716H486.247V438.965H605.341V425.716Z" fill="#413348"/>
<path d="M257.513 168.307L192.141 145.841C188.304 144.545 186.111 140.08 187.344 136.048L201.186 91.5461C202.419 87.5137 206.668 85.2094 210.505 86.5055L276.014 108.972C279.852 110.268 282.044 114.733 280.811 118.765L266.969 163.267C265.599 167.299 261.487 169.604 257.513 168.307ZM209.272 90.394C207.49 89.8179 205.435 90.8261 204.886 92.6983L191.045 137.2C190.496 139.072 191.456 141.232 193.237 141.808L258.746 164.275C260.528 164.851 262.583 163.843 263.132 161.971L276.974 117.469C277.522 115.597 276.562 113.437 274.781 112.861L209.272 90.394Z" fill="white"/>
<path d="M223.8 136.911L228.596 121.502C229.145 119.629 231.611 119.053 232.845 120.637L242.438 132.447C243.672 133.887 242.986 136.191 241.068 136.623L226.678 140.224C224.896 140.656 223.251 138.784 223.8 136.911Z" fill="white"/>
<path d="M278.07 127.263L198.446 99.8994L201.05 91.4023C202.283 87.3699 206.531 85.0656 210.369 86.3617L275.878 108.828C279.715 110.125 281.908 114.589 280.674 118.622L278.07 127.263ZM203.516 97.3071L275.604 122.078L276.974 117.47C277.522 115.597 276.563 113.437 274.781 112.861L209.272 90.3942C207.491 89.8182 205.435 90.8263 204.887 92.6985L203.516 97.3071Z" fill="white"/>
<path d="M218.045 104.509L212.563 102.636L211.877 89.0986L217.359 90.9709L218.045 104.509Z" fill="white"/>
<path d="M230.788 108.829L225.443 106.957L224.758 93.5632L230.24 95.4355L230.788 108.829Z" fill="white"/>
<path d="M243.674 113.294L238.329 111.422L237.644 97.884L243.125 99.7563L243.674 113.294Z" fill="white"/>
<path d="M256.554 117.615L251.072 115.743L250.524 102.349L256.006 104.221L256.554 117.615Z" fill="white"/>
<path d="M269.44 122.079L263.958 120.206L263.41 106.813L268.754 108.541L269.44 122.079Z" fill="white"/>
<path d="M185.29 292.931C184.604 292.931 183.919 292.787 183.371 292.355L170.9 284.434H123.618C118.684 284.434 114.71 280.257 114.71 275.073V228.987C114.71 223.802 118.684 219.626 123.618 219.626H189.949C194.883 219.626 198.857 223.802 198.857 228.987V275.073C198.857 280.257 194.883 284.434 189.949 284.434H188.168L188.853 288.034C189.127 289.618 188.579 291.203 187.345 292.211C186.797 292.643 185.975 292.931 185.29 292.931ZM123.618 223.947C120.877 223.947 118.684 226.251 118.684 229.131V275.217C118.684 278.097 120.877 280.401 123.618 280.401H171.859L185.015 288.754L183.234 280.401H189.812C192.553 280.401 194.746 278.097 194.746 275.217V229.131C194.746 226.251 192.553 223.947 189.812 223.947H123.618Z" fill="white"/>
<path d="M149.519 232.443H126.632V236.62H149.519V232.443Z" fill="white"/>
<path d="M184.603 242.957H126.632V247.133H184.603V242.957Z" fill="white"/>
<path d="M184.603 254.334H126.632V258.51H184.603V254.334Z" fill="white"/>
<path d="M170.898 264.271H126.632V268.448H170.898V264.271Z" fill="white"/>
<defs>
<linearGradient id="paint0_linear_1_61" x1="311.99" y1="0" x2="311.99" y2="437.525" gradientUnits="userSpaceOnUse">
<stop stop-color="#DADEFD"/>
<stop offset="0.385" stop-color="#A9A7F5"/>
<stop offset="0.78" stop-color="#6266BC"/>
</linearGradient>
</defs>
</svg>
