<svg width="421" height="429" viewBox="0 0 421 429" fill="none" xmlns="http://www.w3.org/2000/svg">
<path d="M134.952 416.68C97.4338 420.787 62.9854 390.809 38.8824 355.903C15.5765 322.092 -2.04621 279.931 0.227668 236.128C1.70566 206.697 12.5061 178.088 29.9013 157.281C42.4073 142.361 59.3473 131.136 76.7419 133.327C97.7751 135.927 114.829 157.008 135.748 159.609C157.122 162.346 176.449 145.92 194.867 132.368C211.353 120.186 229.43 109.782 248.757 107.866C268.085 105.949 288.891 114.163 300.146 133.19C308.9 147.973 311.174 167.685 321.406 180.963C332.093 194.925 348.806 198.484 363.7 204.644C389.053 215.047 413.269 237.223 419.408 268.707C425.207 298.137 414.065 328.936 398.376 352.481C368.702 397.105 321.634 424.346 274.111 424.209C264.333 424.209 254.328 422.977 245.46 418.049" fill="url(#paint0_linear_1_729)"/>
<path d="M25.1258 428.863H324.817C328.91 428.863 332.889 429 336.982 428.863H337.55C338.801 428.863 338.801 426.126 337.55 426.126H37.8594C33.7662 426.126 29.7867 425.989 25.6941 426.126H25.1258C23.8754 426.126 23.8754 428.863 25.1258 428.863ZM355.968 428.863H380.412C381.435 428.863 381.435 426.126 380.412 426.126H355.968C354.945 426.126 354.945 428.863 355.968 428.863Z" fill="#0D3557"/>
<path opacity="0.46" d="M225.677 74.4656C227.155 74.4656 227.155 71.728 225.677 71.728C224.199 71.728 224.086 74.4656 225.677 74.4656Z" fill="white"/>
<path d="M119.376 422.43C112.327 422.43 106.529 415.585 106.529 406.962C106.529 398.475 112.214 391.493 119.376 391.493H277.294C278.203 391.493 278.999 390.535 278.999 389.44C278.999 388.345 278.317 387.523 277.407 387.523H117.102C114.95 387.513 112.817 388.015 110.826 389.002C108.836 389.989 107.028 391.441 105.506 393.273C103.984 395.106 102.778 397.283 101.959 399.679C101.139 402.076 100.722 404.644 100.731 407.235C100.722 409.827 101.139 412.395 101.959 414.791C102.778 417.187 103.984 419.365 105.506 421.197C107.028 423.03 108.836 424.481 110.826 425.468C112.817 426.455 114.95 426.958 117.102 426.947H276.953C277.976 426.947 278.885 425.852 278.885 424.62V424.483C278.885 423.251 278.09 422.293 277.067 422.293H119.376V422.43Z" fill="#84C38A"/>
<path d="M106.529 407.098C106.529 415.585 112.214 422.567 119.263 422.567H277.18L276.953 421.471C274.907 412.048 274.907 402.149 276.953 392.726L277.18 391.63H119.263C112.214 391.63 106.529 398.475 106.529 407.098Z" fill="#EBEBF7"/>
<path d="M110.281 410.11C110.281 401.623 115.966 394.642 123.014 394.642H276.611L276.953 392.588L277.18 391.493H119.263C112.214 391.493 106.529 398.338 106.529 406.962C106.529 413.258 109.599 418.734 114.146 421.061C111.759 418.323 110.281 414.491 110.281 410.11Z" fill="#DADAED"/>
<path d="M223.404 403.402H154.393V404.497H223.404V403.402ZM266.721 414.217H197.71V415.312H266.721V414.217Z" fill="#DADAED"/>
<path d="M179.519 404.087V421.746L186.227 415.175L192.821 421.609L192.025 404.087H179.519Z" fill="#DF2121"/>
<path d="M287.753 387.66H134.27C128.358 387.66 123.583 381.911 123.583 374.793V371.371C123.583 364.253 128.358 358.504 134.27 358.504H287.753C293.665 358.504 298.441 364.253 298.441 371.371V374.793C298.441 381.911 293.665 387.66 287.753 387.66Z" fill="#DA3E3E"/>
<path opacity="0.43" d="M274.338 358.504H271.495V387.66H274.338V358.504ZM261.604 358.504H258.762V387.66H261.604V358.504Z" fill="white"/>
<path d="M123.583 366.717V370.823L260.467 358.504H131.882C127.221 358.504 123.583 363.706 123.583 366.717Z" fill="#DA3E3E"/>
<path opacity="0.43" d="M147.345 358.504H144.502V387.66H147.345V358.504ZM159.623 358.504H156.781V387.66H159.623V358.504Z" fill="white"/>
<path d="M133.019 338.519C133.019 347.006 138.363 353.987 144.843 353.987H292.074L291.846 352.892C289.914 343.451 289.914 333.586 291.846 324.145L292.074 323.051H144.843C138.249 323.051 133.019 330.032 133.019 338.519Z" fill="#EBEBF7"/>
<path d="M144.957 353.986C138.363 353.986 133.019 347.142 133.019 338.518C133.019 330.031 138.363 323.051 144.957 323.051H292.074C292.983 323.051 293.665 322.092 293.665 320.997C293.665 319.902 292.983 319.081 292.187 319.081H142.797C134.383 319.081 127.562 327.841 127.562 338.792C127.562 349.743 134.383 358.504 142.797 358.504H291.846C292.869 358.504 293.665 357.409 293.665 356.177V356.04C293.665 354.808 292.869 353.85 291.96 353.85H144.957V353.986Z" fill="#FFA013"/>
<path d="M136.43 341.53C136.43 333.043 141.773 326.062 148.254 326.062H291.505L291.846 324.009L292.074 322.914H144.843C138.363 322.914 133.019 329.758 133.019 338.382C133.019 344.678 135.975 350.154 140.068 352.481C137.794 349.88 136.43 345.91 136.43 341.53Z" fill="#DADAED"/>
<path d="M224.313 334.823H155.303V335.918H224.313V334.823ZM267.63 345.773H198.619V346.868H267.63V345.773Z" fill="#DADAED"/>
<path d="M257.625 236.813C263.765 236.813 268.767 230.79 268.767 223.398C268.767 216.006 263.765 209.983 257.625 209.983H120.286C119.49 209.983 118.808 209.162 118.808 208.204C118.808 207.246 119.376 206.561 120.172 206.561H259.558C267.403 206.561 273.769 214.226 273.769 223.672C273.769 233.117 267.403 240.783 259.558 240.783H120.513C119.604 240.783 118.808 239.824 118.808 238.729V238.592C118.808 237.497 119.49 236.676 120.399 236.676H257.625V236.813Z" fill="#FFA013"/>
<path d="M268.767 223.261C268.767 230.653 263.878 236.676 257.739 236.676H120.286L120.513 235.717C122.219 227.494 122.219 218.891 120.513 210.667L120.286 209.709H257.739C263.878 209.846 268.767 215.869 268.767 223.261Z" fill="#EBEBF7"/>
<path d="M265.583 225.999C265.583 218.607 260.695 212.584 254.555 212.584H120.854C120.741 212.036 120.627 211.488 120.513 210.804L120.286 209.846H257.739C263.878 209.846 268.767 215.869 268.767 223.261C268.767 228.736 266.038 233.39 262.173 235.58C264.219 233.116 265.583 229.695 265.583 225.999Z" fill="#DADAED"/>
<path d="M227.155 220.112H167.127V221.071H227.155V220.112ZM243.982 229.01H183.953V229.968H243.982V229.01Z" fill="#DADAED"/>
<path d="M278.772 319.081H125.288C119.376 319.081 114.601 313.332 114.601 306.214V293.21C114.601 286.091 119.376 280.342 125.288 280.342H278.772C284.684 280.342 289.459 286.091 289.459 293.21V306.214C289.572 313.332 284.684 319.081 278.772 319.081Z" fill="#279632"/>
<path opacity="0.43" d="M265.356 280.205H262.514V318.944H265.356V280.205ZM252.623 280.205H249.781V318.944H252.623V280.205Z" fill="white"/>
<path d="M114.601 290.198V296.632L251.485 280.342H122.901C118.353 280.206 114.601 284.723 114.601 290.198Z" fill="#279632"/>
<path opacity="0.43" d="M138.477 280.205H135.634V318.944H138.477V280.205ZM150.641 280.205H147.799V318.944H150.641V280.205Z" fill="white"/>
<path d="M121.195 275.552C115.397 275.552 110.736 268.707 110.736 260.083C110.736 251.596 115.397 244.616 121.195 244.616H249.894C250.69 244.616 251.259 243.657 251.259 242.562C251.259 241.467 250.69 240.646 250.008 240.646H119.263C111.873 240.646 105.961 249.407 105.961 260.357C105.961 271.308 111.986 280.069 119.263 280.069H249.667C250.577 280.069 251.259 278.974 251.259 277.742V277.605C251.259 276.373 250.577 275.415 249.781 275.415H121.195V275.552Z" fill="#212121"/>
<path d="M110.736 260.083C110.736 268.57 115.397 275.551 121.082 275.551H249.894L249.667 274.456C248.075 264.97 248.075 255.197 249.667 245.71L249.894 244.615H121.082C115.397 244.752 110.736 251.596 110.736 260.083Z" fill="#EBEBF7"/>
<path d="M113.805 263.232C113.805 254.745 118.467 247.763 124.151 247.763H249.439L249.781 245.71L250.008 244.615H121.082C115.397 244.615 110.736 251.459 110.736 260.083C110.736 266.38 113.237 271.856 116.875 274.182C114.942 271.445 113.805 267.475 113.805 263.232Z" fill="#DADAED"/>
<path d="M206.009 256.524H149.732V257.619H206.009V256.524ZM241.367 267.338H185.09V268.433H241.367V267.338Z" fill="#DADAED"/>
<path d="M200.552 267.886V285.681L206.009 279.11L211.353 285.407L210.785 267.886H200.552Z" fill="#DF2121"/>
<path d="M232.385 53.5227C231.249 60.6405 228.065 67.211 223.518 71.8652C223.404 72.0021 223.177 72.2761 223.177 72.4124C223.177 72.6864 223.291 72.9604 223.404 73.0974C223.973 73.9186 224.769 74.1926 225.564 74.4658C228.634 75.561 231.703 76.1083 234.887 76.1083C235.455 76.1083 236.137 76.1083 236.592 75.5611C236.933 75.2871 237.047 74.7398 237.275 74.1926C238.411 70.3597 239.435 66.2528 240.117 62.283C240.117 62.146 240.231 61.872 240.117 61.735C240.003 61.3247 239.775 61.1877 239.548 60.9145C237.615 59.4083 235.797 57.4919 234.432 55.3022" fill="#F8BD8C"/>
<path d="M240.117 62.0097C240.003 61.5987 239.775 61.4617 239.548 61.1877C237.615 59.6823 235.797 57.7658 234.432 55.5754L232.385 53.5227C232.272 54.2069 232.158 54.7542 232.045 55.4391C232.272 55.9864 232.385 56.6706 232.385 57.4919C232.499 60.3665 234.887 63.2412 235.797 65.9788C237.047 69.5377 237.047 72.8234 236.024 76.2453C236.251 76.1083 236.365 76.1083 236.592 75.972C236.933 75.698 237.047 75.1501 237.275 74.6028C238.411 70.7699 239.435 66.6638 240.117 62.6939C240.117 62.283 240.231 62.1467 240.117 62.0097Z" fill="#E9B182"/>
<path d="M256.261 72.5493C255.124 69.5377 255.01 65.9788 255.92 62.8301C256.375 61.1877 257.17 59.6822 257.398 57.9028C257.739 55.4391 256.829 52.8377 255.806 50.648C254.783 48.4576 253.532 46.2671 253.191 43.6665C252.623 40.3816 253.646 36.6857 255.806 34.4952L258.193 36.0007C257.17 39.5603 257.398 43.6665 258.876 46.9521C259.671 48.7316 260.809 50.374 261.149 52.4274C261.832 55.8493 260.354 59.272 258.876 62.2836C257.398 65.2946 255.806 68.5802 256.261 72.0021" fill="#0E3353"/>
<path d="M245.801 18.0687C249.325 18.4797 252.623 20.6701 254.783 24.092C256.943 27.5139 257.739 31.8948 257.17 36.1379C256.829 38.1913 256.147 40.2448 255.92 42.2982C255.692 44.3516 255.92 46.8153 257.17 48.3208C257.625 48.8688 258.08 49.2797 258.421 49.9633C258.876 50.5112 259.103 51.0592 258.762 51.7434C258.307 52.5647 257.284 52.8379 256.602 53.5229C256.261 53.7969 256.033 54.4811 255.806 54.8913C253.987 59.4085 251.713 63.6516 248.985 67.3482C248.871 67.4852 248.643 67.7592 248.416 67.8962C248.075 68.0332 247.734 67.8962 247.393 67.7592C243.868 65.979 240.344 64.1996 237.274 61.5989C234.091 58.9982 231.362 55.7126 229.884 51.4687C228.52 47.4996 228.293 42.9824 229.429 38.8756" fill="#F8BD8C"/>
<path d="M226.246 25.8712C221.357 27.2404 217.037 25.7342 215.331 24.7767C213.626 23.9547 212.035 22.4493 211.239 20.3958C210.443 18.3424 210.329 16.0157 210.784 13.8253C211.807 7.80271 216.355 2.87461 221.471 2.19038C224.427 1.7794 227.497 2.73834 229.771 5.06504C232.044 7.39173 233.181 11.2246 232.613 14.6472" fill="#0E3353"/>
<path d="M258.989 21.2175C257.057 18.3428 250.917 11.7722 242.504 11.4983C237.501 11.088 233.523 11.7722 229.998 14.2367C226.587 16.7003 224.655 20.3962 222.608 24.6401C220.107 29.7044 218.629 32.9894 218.743 38.7394C218.856 44.625 221.13 49.9633 224.882 53.523C225.905 54.4812 228.52 57.0819 229.885 57.2189C231.476 57.4928 231.476 57.9031 232.613 56.5339C233.863 55.1654 234.659 53.523 235.228 51.7435C235.91 49.6901 236.479 47.4997 238.07 46.5414C239.435 45.8565 240.799 46.2675 242.277 46.8154V48.0476C242.504 51.0586 243.755 53.9332 244.778 56.8079C245.801 59.6825 246.597 62.8312 245.915 65.8421C245.46 67.8955 244.323 69.675 243.641 71.5914C242.163 75.1511 241.935 79.5312 243.073 83.3641L243.3 82.9531C243.186 78.7099 245.46 75.0141 247.507 71.5914C249.553 68.1695 251.713 64.3366 251.259 60.0935C250.917 57.6291 249.781 55.4394 248.985 53.112C248.303 50.9223 247.961 48.5949 248.075 46.2682L248.757 45.8572C252.623 43.3935 256.488 40.5189 258.876 36.138C261.149 31.6209 261.718 25.3243 258.989 21.2175Z" fill="#0E3353"/>
<path d="M221.585 28.7466C221.585 28.7466 220.107 28.7466 222.608 24.6398C225.109 20.5329 232.045 12.1829 232.045 12.1829C232.045 12.1829 233.181 11.3609 231.135 16.563C229.089 21.7651 224.541 26.5569 221.585 28.7466Z" fill="url(#paint1_linear_1_729)"/>
<path d="M232.385 12.32C232.385 12.32 233.295 11.7721 234.773 14.2365C236.251 16.7002 238.07 22.3125 238.07 22.3125C238.07 22.3125 238.297 23.2707 236.251 20.9433C234.205 18.6166 232.841 14.7837 232.385 12.32Z" fill="url(#paint2_linear_1_729)"/>
<path d="M232.299 12.5808C232.299 12.5808 232.299 11.4863 234.232 10.5281C236.165 9.56916 240.144 9.02191 240.144 9.02191C240.144 9.02191 240.713 9.02191 238.78 10.5281C236.847 12.0336 233.891 12.5808 232.299 12.5808Z" fill="url(#paint3_linear_1_729)"/>
<path d="M233.75 12.5938C233.75 13.552 233.181 14.2363 232.385 14.2363C231.59 14.2363 231.021 13.5513 231.021 12.5938C231.021 11.6349 231.59 10.9506 232.385 10.9506C233.181 10.9506 233.75 11.6356 233.75 12.5938Z" fill="url(#paint4_linear_1_729)"/>
<path d="M240.231 46.4041C240.799 48.0472 240.799 52.2904 239.435 52.5644C238.525 52.8383 237.502 52.4274 236.706 51.6054C235.91 50.9219 235.455 49.8267 235.001 48.7315C234.546 47.3623 234.205 45.8568 234.432 44.3513C234.773 42.8452 235.797 41.6137 237.047 41.7499C237.957 41.7499 238.639 42.5719 239.207 43.3931C239.775 44.3513 240.003 45.3096 240.231 46.4041Z" fill="#F8BD8C"/>
<path d="M239.775 50.3741C236.024 50.3741 234.432 46.4042 235.001 42.9823C234.659 43.3933 234.546 43.9405 234.432 44.4878C234.091 45.994 234.432 47.4994 235.001 48.8686C235.341 49.9631 235.91 50.9213 236.706 51.7433C237.502 52.4275 238.525 52.9748 239.435 52.7015C240.117 52.5645 240.457 51.6056 240.571 50.3741H239.775Z" fill="#E9B182"/>
<path d="M291.05 263.779C291.619 269.939 292.756 276.51 288.208 286.228C287.753 287.323 286.957 288.282 286.844 289.514C286.617 291.704 288.435 293.483 290.141 294.168C291.846 294.852 293.779 294.989 295.371 295.947C297.303 297.179 298.554 299.506 300.146 301.423C302.192 303.886 304.921 305.666 307.877 306.214C308.218 306.351 308.673 306.214 308.786 305.94C308.786 305.803 308.786 305.529 308.673 305.393C307.99 303.202 306.058 301.833 304.807 300.054C303.557 298.274 302.988 295.947 302.079 293.894C301.283 292.252 300.032 289.103 299.464 287.323C298.44 284.449 298.895 281.437 299.464 278.426C300.032 275.415 301.283 268.159 302.192 265.011" fill="#F8BD8C"/>
<path d="M228.747 166.59C242.845 160.978 257.853 158.377 272.746 159.061C283.774 159.609 295.712 162.484 302.761 172.75C307.877 180.142 308.332 183.701 308.9 193.283C309.355 201.907 308.332 216.417 307.763 225.178C306.74 239.961 306.399 255.155 303.67 269.528C303.557 269.939 303.443 270.486 303.215 270.897C302.874 271.308 302.533 271.445 302.079 271.582C298.668 272.677 295.03 272.813 291.619 271.992C291.164 271.856 290.596 271.719 290.255 271.308C289.913 270.897 289.8 270.212 289.686 269.528C288.549 259.262 287.64 243.383 286.844 233.117C286.275 224.904 286.389 222.166 284.115 214.363C283.547 212.31 282.865 210.12 281.5 208.477C278.885 205.192 274.679 204.918 270.927 205.192C258.193 206.013 245.347 209.846 232.954 206.697" fill="#062B4A"/>
<path d="M274.679 204.781C273.883 210.941 271.041 216.553 267.061 220.523C266.266 221.345 265.356 222.029 265.015 223.261C264.333 225.314 265.583 227.641 267.175 228.873C268.653 230.105 270.473 230.79 271.837 232.295C273.429 234.075 274.111 236.812 275.247 239.14C276.725 242.288 278.885 244.752 281.614 246.258C281.955 246.394 282.296 246.531 282.523 246.258C282.637 246.121 282.637 245.847 282.637 245.71C282.41 243.383 280.932 241.466 280.136 239.277C279.341 237.086 279.341 234.759 278.885 232.432C278.545 230.516 277.976 227.094 277.863 225.177C277.521 222.166 278.431 220.66 279.567 217.922C280.819 215.184 284.001 210.393 285.707 207.655" fill="#F8BD8C"/>
<path d="M201.917 176.446C201.348 183.701 201.121 192.051 204.759 197.937C209.989 206.697 220.562 208.341 229.543 208.888C238.525 209.435 247.507 208.477 255.237 203.002C262.969 197.526 269.677 190.271 276.043 182.606C285.252 171.518 293.893 159.746 302.306 147.563C288.663 163.715 275.816 182.195 271.268 204.508C271.155 204.918 271.041 205.466 271.155 205.876C271.268 206.561 271.837 206.834 272.291 207.245C276.043 209.709 279.909 212.174 283.661 214.637C284.229 214.911 284.797 215.321 285.366 215.184C286.048 215.047 286.617 214.363 287.071 213.679C293.211 204.918 298.668 195.473 304.011 185.891C311.629 172.066 319.246 157.145 320.156 140.582C320.383 136.339 320.042 131.684 317.654 128.673C315.039 125.251 310.719 124.703 306.854 124.703C290.937 124.84 273.883 136.886 259.671 145.51C245.46 154.134 228.975 176.993 218.857 151.259" fill="#103D63"/>
<path d="M317.882 94.7249L337.551 64.0625C338.119 63.2413 339.142 63.6515 339.256 64.6105L340.848 87.4701L328.796 110.193L317.882 94.7249Z" fill="#273C96"/>
<path d="M308.559 100.885L335.731 63.1042L340.052 87.0597L308.559 100.885Z" fill="#EAE9F0"/>
<path d="M305.489 100.885L319.587 69.9489L340.734 87.6071L305.489 100.885Z" fill="#CCCCCC"/>
<path d="M292.983 114.437C296.508 107.456 308.786 84.1854 312.197 77.7518C312.652 76.7936 313.675 76.3826 314.585 76.7936L340.847 87.7443L321.292 124.703C320.951 125.251 320.496 125.524 319.928 125.388L294.006 117.037C292.869 116.627 292.415 115.395 292.983 114.437Z" fill="#273C96"/>
<path d="M340.165 87.4698C339.824 88.839 339.142 90.0705 337.892 90.8917C334.481 93.3561 332.093 97.7362 328.91 100.748C325.727 103.76 322.202 106.77 318.564 109.098C311.288 113.889 301.965 116.353 293.665 116.901H293.779L319.701 125.251C320.269 125.387 320.724 125.114 321.065 124.566L340.62 87.6068L340.165 87.4698Z" fill="#273C96"/>
<path d="M226.815 67.485C217.037 74.7398 210.443 87.0596 206.691 100.064C203.053 113.205 202.03 127.03 201.803 140.856C201.575 154.681 201.917 168.506 200.779 182.195C200.666 183.153 200.779 184.385 201.575 184.659C202.03 184.796 202.599 184.385 202.939 183.975C214.423 172.613 229.203 167.822 242.391 159.472C243.187 158.925 243.982 158.377 244.437 157.556C244.778 157.008 244.892 156.323 245.005 155.639C245.46 153.175 246.029 150.575 246.483 148.11C248.757 137.16 250.917 126.072 251.372 114.71C251.713 103.349 249.553 94.5884 244.551 85.1432C243.641 83.3638 240.003 75.698 238.753 74.1918C235.683 70.4959 231.703 72.9603 226.815 67.485Z" fill="#EF2C2C"/>
<path d="M246.825 85.9645C246.029 88.0179 244.551 89.5234 242.391 89.3864C234.545 88.8391 226.133 88.8391 218.288 87.333C217.492 98.2844 219.197 109.782 224.313 119.09C230.111 129.357 239.093 135.927 248.189 141.266C249.894 132.506 251.372 123.745 251.599 114.847C251.827 104.991 250.576 94.7247 246.825 85.9645Z" fill="#EF2C2C"/>
<path d="M307.536 116.627C309.014 117.585 310.947 116.764 312.083 115.258C313.221 113.752 314.016 112.247 315.153 110.604C316.404 108.687 319.019 107.182 321.52 105.129C321.861 104.855 322.202 105.266 322.089 105.676C321.634 107.456 319.36 110.468 319.019 112.11C319.019 112.247 318.905 112.52 319.019 112.657C319.133 112.794 319.36 112.794 319.473 112.794C322.316 112.52 324.362 109.646 326.977 108.414C327.318 108.277 327.773 108.14 328.228 108.277C329.024 108.551 328.455 110.604 328.228 111.699C327.773 113.889 326.409 116.216 324.931 117.722C319.928 123.061 313.903 124.156 307.309 123.061" fill="#F8BD8C"/>
<path d="M218.629 80.6261C222.267 77.4774 226.929 77.3404 231.249 78.1617C239.435 79.9411 247.052 85.1432 253.873 91.3028C260.24 97.0521 266.379 103.486 273.315 108.003C282.637 114.026 293.211 115.942 303.557 115.532C305.489 115.395 307.65 115.395 309.355 116.49C311.06 117.722 312.311 120.734 311.288 122.923C310.719 124.293 309.469 124.977 308.332 125.524C300.146 129.631 291.846 133.738 283.319 136.064C274.679 138.392 265.697 139.076 257.284 136.201C245.574 132.232 235.683 121.965 226.929 111.014C224.313 107.729 221.813 104.444 220.107 100.201C218.288 96.0939 214.763 86.5117 218.629 80.6261Z" fill="#EF2C2C"/>
<path opacity="0.46" d="M231.249 89.7973C232.727 89.7973 232.727 87.0596 231.249 87.0596C229.771 86.9226 229.771 89.7973 231.249 89.7973ZM249.894 119.638C251.372 119.638 251.372 116.901 249.894 116.901C248.416 116.901 248.416 119.638 249.894 119.638ZM252.509 97.5993C253.987 97.5993 253.987 94.8616 252.509 94.8616C250.917 94.8616 250.917 97.5993 252.509 97.5993ZM235.91 110.056C237.388 110.056 237.388 107.319 235.91 107.319C234.432 107.319 234.432 110.056 235.91 110.056ZM271.609 117.859C273.087 117.859 273.087 115.121 271.609 115.121C270.131 115.121 270.131 117.859 271.609 117.859ZM267.743 134.011C269.221 134.011 269.221 131.273 267.743 131.273C266.265 131.273 266.265 134.011 267.743 134.011ZM294.347 124.019C295.825 124.019 295.825 121.281 294.347 121.281C292.869 121.281 292.869 124.019 294.347 124.019ZM240.003 152.354C241.481 152.354 241.481 149.616 240.003 149.616C238.411 149.616 238.411 152.354 240.003 152.354ZM225.451 130.863C226.929 130.863 226.929 128.125 225.451 128.125C223.973 127.988 223.973 130.863 225.451 130.863ZM221.471 158.925C222.949 158.925 222.949 156.187 221.471 156.187C219.993 156.187 219.993 158.925 221.471 158.925ZM207.487 174.392C208.965 174.392 208.965 171.655 207.487 171.655C206.009 171.655 206.009 174.392 207.487 174.392ZM208.055 139.76C209.533 139.76 209.533 137.023 208.055 137.023C206.577 137.023 206.577 139.76 208.055 139.76ZM216.014 112.657C217.492 112.657 217.492 109.919 216.014 109.919C214.536 109.919 214.536 112.657 216.014 112.657ZM216.014 91.7137C217.492 91.7137 217.492 88.9761 216.014 88.9761C214.536 88.9761 214.536 91.7137 216.014 91.7137ZM244.323 136.064C245.801 136.064 245.801 133.327 244.323 133.327C242.845 133.19 242.845 136.064 244.323 136.064ZM205.327 117.859C206.805 117.859 206.805 115.121 205.327 115.121C203.849 115.121 203.849 117.859 205.327 117.859Z" fill="white"/>
<defs>
<linearGradient id="paint0_linear_1_729" x1="210.498" y1="107.594" x2="210.498" y2="424.209" gradientUnits="userSpaceOnUse">
<stop stop-color="#E7ECFF"/>
<stop offset="0.471875" stop-color="#A8A7F4"/>
<stop offset="1" stop-color="#272F8C"/>
</linearGradient>
<linearGradient id="paint1_linear_1_729" x1="226.755" y1="12.1355" x2="226.755" y2="28.7466" gradientUnits="userSpaceOnUse">
<stop stop-color="#FFE778"/>
<stop offset="0.471875" stop-color="#FFDF48"/>
<stop offset="1" stop-color="#FFD200"/>
</linearGradient>
<linearGradient id="paint2_linear_1_729" x1="235.232" y1="12.2681" x2="235.232" y2="22.5079" gradientUnits="userSpaceOnUse">
<stop stop-color="#FFE778"/>
<stop offset="0.471875" stop-color="#FFDF48"/>
<stop offset="1" stop-color="#FFD200"/>
</linearGradient>
<linearGradient id="paint3_linear_1_729" x1="236.261" y1="9.02191" x2="236.261" y2="12.5808" gradientUnits="userSpaceOnUse">
<stop stop-color="#FFE778"/>
<stop offset="0.471875" stop-color="#FFDF48"/>
<stop offset="1" stop-color="#FFD200"/>
</linearGradient>
<linearGradient id="paint4_linear_1_729" x1="232.386" y1="10.9506" x2="232.386" y2="14.2363" gradientUnits="userSpaceOnUse">
<stop stop-color="#FFE778"/>
<stop offset="0.471875" stop-color="#FFDF48"/>
<stop offset="1" stop-color="#FFD200"/>
</linearGradient>
</defs>
</svg>
