<svg width="34" height="34" viewBox="0 0 34 34" fill="none" xmlns="http://www.w3.org/2000/svg">
<g clip-path="url(#clip0_52_2)">
<path d="M33.9269 26.3438C33.8307 26.054 33.2189 25.6272 32.0918 25.0642C31.7865 24.8868 31.3514 24.6456 30.7885 24.3397C30.225 24.0338 29.7136 23.7519 29.2551 23.4943C28.7957 23.2367 28.3653 22.9872 27.9631 22.7461C27.8988 22.6978 27.6976 22.5572 27.3595 22.3232C27.0212 22.09 26.7358 21.9168 26.5019 21.8039C26.2686 21.6917 26.039 21.6352 25.8136 21.6352C25.4917 21.6352 25.0897 21.8647 24.6069 22.3232C24.1241 22.7823 23.6813 23.281 23.279 23.8208C22.8767 24.3603 22.45 24.8589 21.9997 25.3178C21.5487 25.7768 21.1782 26.0061 20.8888 26.0061C20.7435 26.0061 20.5623 25.9656 20.3452 25.8856C20.1282 25.8052 19.9631 25.7363 19.8497 25.6807C19.7374 25.624 19.5447 25.5116 19.2708 25.3421C18.9964 25.173 18.8439 25.0804 18.8117 25.0642C16.6064 23.8405 14.715 22.4399 13.1372 20.8627C11.5599 19.2847 10.1591 17.3935 8.93568 15.1878C8.91961 15.1556 8.82683 15.0026 8.65793 14.7291C8.48878 14.4553 8.37603 14.2624 8.31971 14.1494C8.26338 14.0368 8.19495 13.8717 8.11461 13.6545C8.03426 13.4372 7.99391 13.2562 7.99391 13.1111C7.99391 12.8215 8.22337 12.4511 8.68221 12.0003C9.14095 11.5497 9.64013 11.123 10.1792 10.7208C10.7187 10.3186 11.2174 9.87578 11.6763 9.39301C12.1351 8.90999 12.3645 8.50774 12.3645 8.18584C12.3645 7.96061 12.3081 7.73098 12.1956 7.49763C12.0829 7.26377 11.9099 6.97841 11.6763 6.64018C11.4427 6.30213 11.3019 6.10109 11.2535 6.03638C11.0123 5.63422 10.7631 5.20363 10.5052 4.7448C10.2473 4.28605 9.96584 3.7747 9.65984 3.21132C9.35409 2.64821 9.11279 2.21339 8.93551 1.90756C8.3724 0.780905 7.94587 0.168901 7.65603 0.0726521C7.54328 0.0243583 7.37413 0 7.14898 0C6.71409 0 6.14674 0.0803487 5.44652 0.241553C4.74605 0.402505 4.19486 0.571321 3.79235 0.74868C2.98743 1.08657 2.1343 2.06851 1.2327 3.69418C0.411706 5.2071 0.00125122 6.70455 0.00125122 8.18541C0.00125122 8.61972 0.0294155 9.04227 0.0857442 9.45315C0.142073 9.8636 0.24272 10.3265 0.387771 10.8417C0.532567 11.3568 0.649369 11.7394 0.737668 11.9886C0.826051 12.2379 0.991062 12.6846 1.23262 13.3287C1.47383 13.9727 1.61888 14.3669 1.66718 14.5118C2.23055 16.0895 2.89862 17.498 3.67124 18.7376C4.94244 20.7981 6.67721 22.9275 8.87453 25.125C11.0719 27.3224 13.2009 29.057 15.2616 30.3287C16.5011 31.1013 17.91 31.7693 19.4875 32.3331C19.6325 32.3811 20.0267 32.5258 20.6704 32.7679C21.3144 33.0093 21.7612 33.1743 22.0105 33.2628C22.2599 33.3515 22.6427 33.4683 23.1573 33.6134C23.6731 33.7585 24.1355 33.8591 24.546 33.9158C24.9567 33.9714 25.3793 34.0001 25.8137 34.0001C27.2945 34.0001 28.792 33.5894 30.3052 32.7685C31.9307 31.8672 32.9124 31.0139 33.2505 30.2084C33.4282 29.8063 33.5966 29.255 33.7576 28.5545C33.919 27.8543 33.9992 27.2871 33.9992 26.8523C33.9997 26.6262 33.9755 26.4575 33.9269 26.3438Z" fill="white"/>
</g>
<defs>
<clipPath id="clip0_52_2">
<rect width="34" height="34" fill="white"/>
</clipPath>
</defs>
</svg>
